<svg xmlns="http://www.w3.org/2000/svg" viewBox="0 0 64 64" fill="none">
  <rect width="64" height="64" rx="14" fill="#000000"/>
  <path d="M44.5 34.2c-.05-4.85 3.95-7.18 4.13-7.3-2.25-3.29-5.75-3.74-6.99-3.79-2.97-.31-5.82 1.77-7.33 1.77-1.53 0-3.87-1.73-6.37-1.68-3.27.05-6.3 1.92-7.98 4.87-3.42 5.93-.87 14.72 2.45 19.53 1.63 2.36 3.57 5.01 6.11 4.92 2.45-.1 3.38-1.59 6.34-1.59 2.95 0 3.79 1.59 6.37 1.54 2.64-.05 4.31-2.4 5.91-4.78 1.87-2.74 2.63-5.39 2.67-5.53-.06-.03-5.12-1.97-5.17-7.82l.01.02-.15-.16zM39.7 20.5c1.35-1.65 2.27-3.93 2.02-6.22-1.95.08-4.33 1.31-5.73 2.95-1.25 1.46-2.35 3.8-2.06 6.04 2.18.17 4.41-1.11 5.77-2.77z" fill="white"/>
</svg>
