<svg xmlns="http://www.w3.org/2000/svg" viewBox="0 0 35 42">
  <path d="M27.2 21.6c-.04-4.2 3.42-6.22 3.58-6.32-1.95-2.85-4.98-3.24-6.06-3.28-2.57-.27-5.04 1.53-6.35 1.53-1.33 0-3.35-1.5-5.52-1.46-2.83.05-5.45 1.66-6.91 4.22-2.96 5.14-.76 12.75 2.12 16.92 1.41 2.04 3.09 4.34 5.3 4.26 2.12-.09 2.93-1.38 5.49-1.38 2.55 0 3.28 1.38 5.52 1.33 2.29-.04 3.74-2.08 5.12-4.14 1.62-2.37 2.28-4.67 2.32-4.79-.05-.02-4.44-1.71-4.49-6.77l.01.02-.13-.14zM23.04 9.72c1.17-1.43 1.96-3.4 1.75-5.39-1.69.07-3.75 1.13-4.96 2.56-1.08 1.26-2.04 3.29-1.78 5.23 1.89.15 3.82-.96 4.99-2.4z" fill="#A2AAAD"/>
</svg>
